<?xml version="1.0" standalone="no"?>
<!DOCTYPE svg PUBLIC "-//W3C//DTD SVG 20010904//EN"
 "http://www.w3.org/TR/2001/REC-SVG-20010904/DTD/svg10.dtd">
<svg version="1.0" xmlns="http://www.w3.org/2000/svg"
 width="1181.000000pt" height="1181.000000pt" viewBox="0 0 1181.000000 1181.000000"
 preserveAspectRatio="xMidYMid meet">

<g transform="translate(0.000000,1181.000000) scale(0.100000,-0.100000)"
fill="#000000" stroke="none">
<path d="M6290 10147 l0 -77 -105 -162 -104 -163 52 -3 c29 -2 88 -1 132 3
l81 6 22 57 c60 149 41 303 -47 386 l-31 30 0 -77z"/>
<path d="M6821 9685 l-102 -145 -820 0 -820 0 12 -22 c27 -52 106 -141 144
-163 l40 -23 648 2 c366 2 650 -1 653 -6 3 -4 19 1 35 13 43 30 123 56 219 70
80 11 86 13 101 43 9 17 31 57 48 88 37 67 50 146 32 201 -11 33 -61 87 -80
87 -5 0 -54 -65 -110 -145z"/>
<path d="M5277 9780 c3 -12 12 -24 20 -27 24 -9 24 3 -1 26 l-25 23 6 -22z"/>
<path d="M9877 9523 c-2 -4 -17 -57 -32 -118 l-27 -110 -870 -700 c-479 -385
-1059 -852 -1290 -1038 l-420 -337 -49 36 -49 36 0 -85 0 -84 85 -67 85 -68
583 454 c320 250 835 651 1145 893 359 280 562 444 562 455 0 10 42 51 98 96
147 118 208 183 245 261 39 84 48 176 23 250 -16 49 -81 140 -89 126z"/>
<path d="M2120 9165 c0 -24 54 -100 104 -150 52 -50 1219 -997 1626 -1319 69
-55 174 -140 234 -190 250 -207 492 -397 513 -402 17 -5 55 20 178 116 175
137 168 124 140 253 -16 77 -54 153 -96 193 l-29 28 0 -25 c0 -26 17 -175 25
-222 4 -25 -6 -35 -129 -128 l-134 -100 -1211 976 c-666 536 -1214 975 -1216
975 -3 0 -5 -2 -5 -5z"/>
<path d="M7887 9006 l-117 -42 24 -23 25 -23 151 53 c157 55 159 57 70 72 -26
4 -65 -5 -153 -37z"/>
<path d="M5334 9029 c3 -8 107 -437 231 -954 124 -517 228 -948 231 -957 4
-12 15 -18 35 -18 16 0 29 2 29 5 0 17 -422 1748 -435 1785 -19 53 -58 122
-80 140 -13 11 -15 10 -11 -1z"/>
<path d="M3823 9009 c-18 -5 -34 -13 -37 -17 -2 -4 38 -23 90 -41 l95 -33 25
23 25 23 -65 22 c-94 32 -98 33 -133 23z"/>
<path d="M8215 8977 c-22 -34 -105 -73 -355 -163 -99 -36 -134 -45 -175 -42
-47 3 -72 -7 -383 -152 l-333 -154 -50 -96 -50 -95 -39 -400 c-22 -220 -41
-417 -44 -437 -4 -35 -1 -38 74 -96 l77 -60 6 116 c28 509 40 609 86 709 38
80 98 145 180 193 105 62 428 206 526 235 300 88 473 159 548 225 43 37 77 97
77 134 0 29 -41 81 -81 101 -38 20 -41 19 -64 -18z"/>
<path d="M3716 8881 c-11 -17 30 -85 71 -121 75 -66 248 -137 548 -225 94 -28
443 -184 528 -236 27 -17 51 -29 53 -27 2 2 -19 46 -46 98 l-48 95 -332 154
c-318 148 -333 154 -398 155 -66 2 -77 5 -354 111 -9 4 -19 2 -22 -4z"/>
<path d="M9962 8374 l3 -137 -1035 -606 c-570 -333 -1052 -616 -1073 -628
l-36 -22 21 -51 c13 -31 26 -50 35 -48 7 2 270 113 583 248 387 166 570 250
570 260 0 9 173 116 437 270 241 140 463 274 494 297 34 24 69 62 86 90 25 43
28 59 32 159 5 159 -29 256 -101 295 -18 10 -19 6 -16 -127z"/>
<path d="M1996 8112 c12 -51 55 -112 107 -151 29 -22 223 -139 432 -261 837
-489 1111 -658 1125 -694 5 -15 44 -37 134 -75 69 -30 128 -52 130 -50 3 2 14
25 25 51 15 35 17 49 8 56 -10 8 -1576 925 -1885 1103 -82 48 -82 48 -76 21z"/>
<path d="M9897 7327 c-3 -12 -15 -86 -28 -165 -19 -127 -24 -143 -43 -147 -11
-3 -453 -84 -980 -180 -528 -96 -961 -176 -962 -178 -2 -2 2 -40 8 -85 l12
-82 56 0 c120 1 523 29 529 38 3 5 294 62 646 126 352 64 656 121 675 126 110
30 169 108 195 254 31 181 12 256 -76 302 -25 12 -27 12 -32 -9z"/>
<path d="M2080 6959 c25 -88 92 -154 181 -179 19 -6 234 -46 479 -91 762 -138
924 -170 931 -181 4 -7 50 -13 111 -16 l104 -4 12 83 c6 45 10 84 8 86 -4 4
-1804 333 -1822 333 -9 0 -10 -8 -4 -31z"/>
<path d="M4532 6623 c2 -13 17 -20 52 -25 33 -5 58 -15 75 -33 l26 -25 3 -433
c2 -237 0 -447 -3 -465 -7 -40 -47 -67 -111 -77 -35 -5 -44 -10 -44 -26 0 -18
10 -19 295 -19 283 0 295 1 295 19 0 15 -10 21 -52 26 -38 5 -60 15 -80 35
l-28 28 0 446 c0 257 4 455 10 470 12 31 43 49 100 56 32 3 46 10 48 23 3 16
-16 17 -293 17 -276 0 -296 -1 -293 -17z"/>
<path d="M5206 6594 c-3 -26 -6 -100 -6 -165 0 -117 0 -119 23 -119 19 0 25 9
40 65 34 131 111 197 245 211 l63 7 -3 -486 c-3 -456 -4 -486 -22 -505 -10
-12 -31 -23 -47 -26 -16 -3 -42 -9 -59 -12 -21 -4 -30 -11 -30 -25 0 -18 11
-19 295 -19 287 0 295 1 295 20 0 16 -9 21 -51 26 -31 4 -62 16 -78 30 l-26
22 -3 488 -3 487 63 -7 c134 -14 211 -80 245 -211 15 -56 21 -65 40 -65 23 0
23 0 23 165 l0 165 -499 0 -498 0 -7 -46z"/>
<path d="M6290 6621 c0 -15 10 -19 47 -24 62 -7 89 -37 98 -109 9 -75 1 -849
-9 -871 -10 -22 -49 -42 -98 -51 -29 -5 -38 -12 -38 -26 0 -20 10 -20 485 -20
l485 0 0 43 c0 24 3 99 7 165 l6 122 -25 0 c-22 0 -27 -6 -37 -46 -19 -75 -58
-142 -101 -173 -55 -40 -126 -55 -252 -56 -159 0 -152 -13 -156 272 l-3 226
61 -6 c126 -14 189 -76 209 -207 5 -37 10 -46 29 -48 l22 -3 0 281 c0 281 0
281 -21 278 -17 -2 -25 -16 -38 -68 -29 -116 -87 -166 -201 -172 l-55 -3 -3
192 c-3 228 4 258 63 269 62 11 246 -1 290 -20 79 -34 135 -107 156 -206 9
-43 14 -50 35 -50 28 0 28 5 17 208 l-6 122 -484 0 c-465 0 -483 -1 -483 -19z"/>
<path d="M3075 6238 c-434 -67 -792 -122 -794 -124 -6 -5 26 -51 67 -96 47
-52 122 -88 184 -88 26 0 210 25 410 56 200 30 377 53 395 50 21 -3 116 21
299 75 147 43 269 81 271 83 9 9 -21 166 -31 165 -6 0 -366 -55 -801 -121z"/>
<path d="M7891 6280 c-7 -45 -11 -84 -8 -86 2 -2 72 -24 154 -49 129 -39 155
-44 177 -34 20 10 57 7 188 -15 364 -59 1094 -166 1137 -166 95 0 199 78 257
192 28 55 30 78 9 122 -16 34 -78 76 -112 76 -12 0 -45 -36 -96 -104 -56 -75
-82 -103 -95 -100 -9 2 -359 56 -777 119 -418 63 -774 118 -791 121 l-31 6
-12 -82z"/>
<path d="M3487 5660 c-505 -207 -508 -208 -617 -221 -65 -7 -110 -17 -110 -23
1 -30 42 -96 79 -128 110 -94 188 -80 657 112 148 61 278 110 290 108 20 -3
323 179 324 194 0 11 -101 168 -109 168 -3 -1 -235 -95 -514 -210z"/>
<path d="M7731 5791 c-28 -44 -51 -84 -51 -88 1 -4 52 -40 114 -79 l114 -72
28 19 c22 14 47 19 99 19 67 0 85 -6 355 -116 449 -182 507 -204 587 -225 89
-22 108 -23 171 -7 59 15 135 87 153 146 10 35 9 48 -5 87 -15 39 -76 105 -97
105 -4 0 -31 -33 -60 -72 -28 -40 -55 -77 -59 -81 -4 -4 -65 -1 -136 8 l-129
16 -512 210 c-281 115 -513 209 -516 209 -3 0 -28 -36 -56 -79z"/>
<path d="M3826 4865 c-136 -107 -250 -195 -254 -195 -4 0 -32 16 -62 35 -62
39 -70 41 -70 20 0 -57 87 -151 177 -192 96 -44 141 -28 336 120 122 93 153
109 232 123 39 6 84 44 85 71 0 14 -178 213 -190 213 -4 0 -118 -88 -254 -195z"/>
<path d="M7612 4960 c-51 -55 -92 -105 -92 -111 0 -5 42 -64 93 -131 l92 -120
6 41 c14 107 123 162 243 121 22 -7 95 -55 163 -107 139 -106 186 -133 242
-140 76 -10 209 74 253 161 42 81 16 205 -56 275 l-32 31 7 -57 c3 -32 6 -59
5 -59 -6 -7 -296 -185 -308 -189 -11 -5 -93 54 -258 185 -132 105 -247 193
-254 196 -7 3 -53 -39 -104 -96z"/>
<path d="M5202 4685 c-46 -13 -85 -25 -87 -27 -1 -2 -215 -491 -476 -1088
-260 -597 -476 -1089 -480 -1093 -3 -5 -21 -1 -38 7 l-31 17 0 117 c0 64 -3
127 -6 139 -4 14 -47 46 -125 93 l-119 72 -122 -87 c-67 -48 -127 -89 -133
-91 -7 -3 -41 6 -76 19 l-64 24 -2 49 c-2 27 -5 86 -9 130 l-6 81 -37 12 c-54
16 -59 15 -81 -21 -26 -42 -25 -44 9 -51 32 -7 41 -33 41 -124 0 -49 -5 -62
-58 -141 -57 -86 -58 -88 -51 -143 10 -93 57 -137 116 -110 14 7 53 33 86 59
58 46 61 47 128 46 l69 -1 0 53 0 53 86 60 85 59 82 -48 82 -48 2 -104 3 -103
-85 -63 c-81 -59 -85 -64 -85 -101 0 -73 32 -134 78 -152 33 -13 82 11 187 90
50 38 114 79 143 91 66 28 136 103 179 193 18 36 189 423 379 859 190 436 364
828 386 870 68 131 148 182 253 160 28 -5 52 -8 54 -6 2 2 -32 63 -77 136 -52
86 -87 134 -99 135 -10 1 -56 -9 -101 -22z"/>
<path d="M6391 4579 c-44 -72 -81 -137 -81 -144 0 -9 402 -949 760 -1774 l58
-134 -23 -51 c-12 -28 -37 -82 -54 -120 l-32 -68 -37 7 c-20 3 -48 9 -61 12
-21 5 -22 4 -12 -15 23 -44 113 -131 146 -142 105 -35 183 93 144 235 -6 21
-166 398 -354 836 -189 438 -351 823 -361 855 -59 204 69 401 239 367 26 -5
47 -8 47 -5 0 5 -91 215 -95 220 -4 4 -179 52 -191 52 -7 0 -48 -59 -93 -131z"/>
<path d="M7857 4234 c-4 -38 -9 -127 -13 -199 l-6 -130 -129 -219 c-71 -120
-128 -221 -126 -223 4 -4 268 34 271 39 22 36 88 196 96 232 18 81 28 266 19
336 -9 63 -49 160 -87 209 l-19 24 -6 -69z"/>
<path d="M5170 2820 c-236 -472 -252 -501 -280 -507 -35 -7 -40 -35 -14 -86
43 -84 87 -101 166 -63 l53 25 184 547 c184 546 190 569 153 582 -6 2 -118
-210 -262 -498z"/>
<path d="M6342 3308 c-7 -7 -12 -17 -12 -24 0 -6 95 -291 210 -634 l211 -622
-8 -166 -8 -165 -98 -59 c-80 -47 -102 -56 -118 -48 -56 31 27 -102 90 -141
73 -47 129 -35 194 41 79 93 77 234 -8 555 -64 241 -83 389 -50 401 10 4 30 0
47 -10 25 -16 2 35 -197 433 -124 248 -229 451 -233 451 -4 0 -13 -5 -20 -12z"/>
<path d="M8463 3078 l-101 -30 -6 -82 c-4 -44 -7 -103 -9 -130 l-2 -49 -64
-24 c-35 -13 -69 -22 -76 -19 -6 2 -67 43 -134 91 l-122 87 -119 -72 c-65 -39
-121 -78 -124 -85 -3 -8 -6 -74 -7 -147 l-2 -133 44 -49 c27 -31 64 -58 99
-74 30 -14 96 -56 145 -93 105 -79 154 -103 187 -90 49 19 72 67 83 181 14
129 59 181 183 210 77 18 115 8 190 -50 36 -28 76 -53 89 -56 36 -9 68 9 88
51 15 33 17 60 13 214 -4 164 -7 181 -34 251 -18 47 -30 68 -32 55 -8 -47 -12
-47 -78 14 -41 37 -75 61 -88 60 -12 -1 -67 -15 -123 -31z m231 -137 c2 -3 8
-75 12 -158 l7 -153 -54 -25 c-30 -14 -59 -25 -65 -25 -6 0 -45 52 -87 115
-72 108 -77 118 -77 169 0 107 3 112 89 138 l76 24 47 -39 c27 -21 50 -42 52
-46z m-631 -208 c71 -50 77 -57 77 -89 0 -41 -31 -367 -35 -372 -2 -2 -71 47
-154 110 l-150 113 0 102 -1 102 83 49 c45 27 87 47 92 44 6 -3 45 -30 88 -59z"/>
<path d="M5725 2986 c-2 -6 -77 -306 -166 -666 -89 -360 -165 -662 -170 -671
-12 -24 -139 -71 -156 -58 -10 9 -13 8 -13 -4 0 -71 97 -167 168 -167 39 0
114 50 141 94 13 20 29 36 37 36 8 0 14 4 14 8 0 4 50 323 110 707 61 385 108
705 106 711 -6 15 -67 24 -71 10z"/>
<path d="M6030 2992 c-14 -2 -29 -7 -33 -12 -5 -4 46 -355 113 -779 l121 -771
-78 -130 -78 -130 -158 0 -157 0 24 -48 c48 -94 153 -162 251 -162 107 0 211
73 261 183 36 81 41 169 20 399 -19 210 -21 395 -5 400 8 3 -31 177 -116 523
-71 286 -131 522 -134 526 -3 3 -17 3 -31 1z"/>
</g>
</svg>
