<?xml version="1.0" standalone="no"?>
<!DOCTYPE svg PUBLIC "-//W3C//DTD SVG 20010904//EN"
 "http://www.w3.org/TR/2001/REC-SVG-20010904/DTD/svg10.dtd">
<svg version="1.0" xmlns="http://www.w3.org/2000/svg"
 width="1181.000000pt" height="1181.000000pt" viewBox="0 0 1181.000000 1181.000000"
 preserveAspectRatio="xMidYMid meet">

<g transform="translate(0.000000,1181.000000) scale(0.100000,-0.100000)"
fill="#000000" stroke="none">
<path d="M1055 11803 c-231 -21 -457 -106 -615 -232 -205 -163 -337 -398 -413
-731 l-21 -95 -4 -4790 c-2 -3307 0 -4825 8 -4902 52 -549 395 -904 992 -1025
l113 -23 4815 0 c4666 0 4818 1 4915 19 263 49 455 147 617 314 41 42 93 104
115 137 91 136 173 336 210 515 16 80 17 355 21 4875 2 3386 0 4822 -8 4897
-28 282 -130 511 -305 683 -167 165 -388 275 -682 337 l-108 23 -4805 1
c-2643 0 -4823 -1 -4845 -3z m5021 -1254 c99 -72 187 -138 197 -146 15 -14 17
-36 17 -175 l0 -158 -104 -162 c-58 -90 -103 -164 -101 -166 2 -2 94 -1 204 3
l201 8 46 146 c25 80 50 161 55 179 l11 32 148 0 c82 0 151 -4 154 -8 3 -4 6
-71 7 -148 l2 -139 -97 -137 -98 -138 -828 0 -829 0 -100 139 -100 139 7 144
7 143 151 3 151 3 52 -173 c30 -95 56 -176 60 -179 3 -4 95 -9 204 -12 181 -5
198 -4 192 11 -3 9 -49 82 -101 162 l-94 146 0 165 1 164 197 142 c108 78 200
142 203 142 4 1 87 -58 185 -130z m-3835 -702 l85 -12 794 -900 c436 -495 826
-937 867 -982 l74 -82 147 70 146 70 151 -11 c148 -11 150 -11 182 -42 74 -71
79 -86 103 -303 12 -110 24 -208 26 -217 4 -12 -30 -44 -129 -118 l-135 -101
-1290 1038 -1290 1038 -39 150 -40 150 89 133 88 132 43 -1 c23 0 81 -6 128
-12z m7567 -119 l88 -133 -39 -150 -40 -150 -869 -700 c-479 -385 -1059 -852
-1290 -1038 l-420 -338 -134 101 c-123 92 -133 102 -129 127 3 16 14 109 25
208 12 99 23 189 25 200 3 11 28 46 57 77 l53 58 150 11 151 10 147 -70 147
-70 867 982 866 982 81 11 c45 6 102 12 128 13 l48 1 88 -132z m-5178 -264
c234 -37 448 -75 476 -86 58 -21 132 -81 164 -132 13 -23 106 -390 271 -1073
137 -571 252 -1046 255 -1055 5 -16 18 -18 98 -18 l94 0 15 63 c9 34 122 503
252 1042 130 539 244 998 254 1020 32 71 130 146 221 168 44 11 851 137 877
137 49 0 81 -29 157 -145 l76 -116 153 7 c109 5 164 3 190 -5 42 -14 87 -62
122 -131 l25 -50 -32 0 c-18 1 -44 7 -58 14 -22 13 -44 7 -247 -62 l-223 -77
24 -24 24 -24 202 72 c111 39 203 71 206 71 2 0 4 -15 4 -34 0 -61 -26 -79
-218 -154 -238 -93 -274 -104 -330 -100 -43 3 -76 -10 -380 -152 l-333 -154
-50 -96 -50 -95 -39 -400 c-22 -220 -41 -416 -44 -436 l-4 -37 264 -206 265
-207 37 29 c20 16 548 427 1173 914 l1136 886 146 -36 145 -35 6 -81 c3 -45 7
-159 8 -255 l3 -174 -1035 -606 c-570 -333 -1052 -616 -1073 -628 l-36 -22 21
-50 c11 -28 24 -51 28 -51 5 0 405 171 889 380 485 209 887 380 894 380 12 0
269 -71 276 -76 4 -4 -79 -537 -85 -543 -2 -2 -443 -85 -981 -183 -537 -98
-978 -179 -979 -181 -2 -2 2 -40 8 -85 l12 -82 46 0 c25 0 401 20 835 45 435
24 819 45 855 47 l65 3 19 -87 19 -86 -112 -150 c-81 -109 -116 -149 -129
-146 -9 2 -359 56 -777 119 -418 63 -774 118 -791 121 l-31 6 -12 -82 c-7 -45
-10 -84 -8 -86 2 -3 294 -90 648 -195 354 -105 647 -193 650 -197 3 -4 15 -45
27 -91 l20 -83 -70 -97 c-39 -53 -74 -100 -78 -104 -4 -4 -65 -1 -136 8 l-129
16 -512 210 c-281 115 -513 209 -516 209 -7 0 -107 -157 -107 -167 1 -4 186
-126 413 -269 l412 -261 16 -154 c8 -85 15 -155 15 -155 -4 -5 -296 -185 -308
-189 -11 -5 -93 54 -258 185 -132 105 -247 193 -254 196 -13 5 -196 -188 -196
-207 0 -7 231 -317 333 -447 7 -9 6 -88 -2 -255 l-13 -242 -129 -219 c-71
-120 -128 -221 -126 -222 2 -2 158 18 347 45 l344 50 160 -88 161 -88 82 -159
c80 -155 84 -169 67 -222 -3 -9 -28 8 -70 47 -37 34 -73 61 -81 61 -8 0 -63
-14 -123 -31 l-108 -32 -6 -81 c-4 -44 -7 -103 -9 -130 l-2 -49 -64 -24 c-35
-13 -69 -22 -76 -19 -6 2 -67 43 -134 91 l-122 88 -112 -68 c-62 -37 -118 -75
-124 -83 -9 -11 -13 -56 -13 -144 l0 -127 -31 -17 c-17 -8 -35 -12 -39 -7 -4
4 -83 181 -175 393 -407 936 -778 1785 -780 1788 -4 4 -179 52 -191 52 -13 0
-174 -255 -174 -275 0 -9 402 -949 760 -1774 l58 -134 -23 -51 c-12 -28 -37
-82 -54 -120 l-32 -68 -37 7 c-20 3 -54 11 -75 16 l-37 10 -251 500 c-143 288
-255 499 -261 497 -37 -13 -31 -35 181 -663 l212 -627 -8 -166 -8 -165 -97
-58 -98 -58 -62 26 c-35 13 -67 29 -72 33 -5 5 -84 312 -176 682 l-167 673
-29 -3 c-16 -2 -33 -7 -37 -12 -5 -4 46 -355 113 -779 l121 -771 -78 -130 -78
-130 -180 0 -180 0 -78 130 -78 130 121 771 c67 424 118 775 113 779 -4 5 -21
10 -37 12 l-29 3 -167 -673 c-92 -370 -171 -677 -176 -682 -5 -4 -37 -20 -72
-33 l-62 -26 -98 58 -97 57 -9 164 -9 165 213 629 c214 630 220 651 182 664
-6 2 -118 -209 -261 -497 l-251 -500 -37 -11 c-21 -5 -55 -13 -75 -16 l-36 -6
-52 108 c-29 60 -52 118 -52 129 0 11 181 439 402 950 222 512 404 939 407
950 5 23 -152 285 -170 285 -14 0 -188 -47 -192 -52 -1 -2 -215 -491 -476
-1088 -260 -597 -476 -1089 -480 -1093 -3 -5 -21 -1 -38 7 l-31 17 0 117 c0
64 -3 127 -6 139 -4 14 -47 46 -125 93 l-119 72 -122 -87 c-67 -48 -127 -89
-133 -91 -7 -3 -41 6 -76 19 l-64 24 -2 49 c-2 27 -5 86 -9 130 l-6 81 -108
32 c-60 17 -114 31 -121 31 -7 0 -43 -27 -80 -60 -37 -33 -70 -57 -72 -53 -3
5 -7 22 -11 38 -4 24 10 60 77 190 l82 159 161 87 160 87 344 -48 c190 -27
346 -47 347 -46 2 1 -55 101 -126 222 l-129 219 -14 240 -14 240 173 228 c95
125 173 232 173 237 0 18 -183 211 -196 206 -7 -3 -121 -91 -254 -195 -132
-105 -244 -191 -248 -191 -6 0 -312 186 -318 193 -1 1 6 71 15 156 l16 154
412 261 c227 144 412 264 413 268 0 9 -100 168 -107 168 -2 0 -235 -94 -516
-209 l-512 -210 -129 -16 c-71 -9 -132 -12 -136 -8 -4 4 -39 51 -78 104 l-70
96 20 84 c11 46 23 87 26 91 4 4 297 92 651 197 354 105 646 193 648 195 2 2
-1 40 -8 85 l-12 81 -36 -6 c-20 -3 -384 -58 -809 -123 l-772 -117 -107 141
c-58 77 -108 149 -110 160 -2 11 5 54 15 95 l18 75 64 -3 c36 -1 423 -23 860
-47 437 -25 813 -45 835 -45 l41 0 12 82 c6 45 10 83 8 85 -2 2 -443 84 -980
182 -536 97 -978 180 -980 182 -5 5 -86 509 -86 532 0 11 245 88 278 87 7 0
405 -169 885 -376 479 -207 879 -379 888 -381 21 -6 63 91 46 105 -7 5 -442
260 -967 567 -525 307 -1002 586 -1060 620 l-105 61 3 185 c1 101 5 216 8 255
l5 71 146 35 146 36 1156 -901 c636 -495 1164 -907 1173 -914 15 -14 43 5 280
192 253 198 263 208 260 238 -1 18 -20 214 -42 437 l-40 405 -49 95 -49 95
-334 155 c-311 145 -336 155 -383 152 -53 -4 -158 30 -398 127 -120 48 -147
70 -147 123 0 21 2 38 4 38 3 0 95 -32 206 -71 l202 -72 24 24 24 24 -223 76
-222 76 -39 -17 c-21 -10 -46 -15 -57 -13 -17 5 -17 8 6 54 35 68 80 116 122
130 26 8 81 10 188 5 l152 -7 74 112 c74 113 113 149 159 149 14 0 216 -30
450 -66z m-1281 -6490 c2 -2 6 -39 9 -82 l4 -79 -77 -116 c-43 -64 -84 -117
-92 -117 -7 0 -37 12 -65 26 l-51 26 6 151 6 152 50 47 50 46 78 -25 c43 -13
80 -26 82 -29z m5345 -33 c2 -3 8 -75 12 -158 l7 -153 -54 -25 c-30 -14 -59
-25 -65 -25 -6 0 -45 52 -87 115 -72 108 -77 118 -77 169 0 107 3 112 89 138
l76 24 47 -39 c27 -21 50 -42 52 -46z m-4707 -343 l2 -103 -150 -113 c-83 -63
-152 -112 -154 -110 -5 4 -35 327 -35 371 0 34 5 40 86 96 l85 59 82 -48 82
-48 2 -104z m4076 135 c71 -50 77 -57 77 -89 0 -41 -31 -367 -35 -372 -2 -2
-71 47 -154 110 l-150 113 0 102 -1 102 83 49 c45 27 87 47 92 44 6 -3 45 -30
88 -59z"/>
<path d="M4532 6623 c2 -13 17 -20 52 -25 33 -5 58 -15 75 -33 l26 -25 3 -433
c2 -237 0 -447 -3 -465 -7 -40 -47 -67 -111 -77 -35 -5 -44 -10 -44 -26 0 -18
10 -19 295 -19 283 0 295 1 295 19 0 15 -10 21 -52 26 -38 5 -60 15 -80 35
l-28 28 0 446 c0 257 4 455 10 470 12 31 43 49 100 56 32 3 46 10 48 23 3 16
-16 17 -293 17 -276 0 -296 -1 -293 -17z"/>
<path d="M5206 6594 c-3 -26 -6 -100 -6 -165 0 -117 0 -119 23 -119 19 0 25 9
40 65 34 131 111 197 245 211 l63 7 -3 -486 c-3 -456 -4 -486 -22 -505 -10
-12 -31 -23 -47 -26 -16 -3 -42 -9 -59 -12 -21 -4 -30 -11 -30 -25 0 -18 11
-19 295 -19 287 0 295 1 295 20 0 16 -9 21 -51 26 -31 4 -62 16 -78 30 l-26
22 -3 488 -3 487 63 -7 c134 -14 211 -80 245 -211 15 -56 21 -65 40 -65 23 0
23 0 23 165 l0 165 -499 0 -498 0 -7 -46z"/>
<path d="M6290 6621 c0 -15 10 -19 47 -24 62 -7 89 -37 98 -109 9 -75 1 -849
-9 -871 -10 -22 -49 -42 -98 -51 -29 -5 -38 -12 -38 -26 0 -20 10 -20 485 -20
l485 0 0 43 c0 24 3 99 7 165 l6 122 -25 0 c-22 0 -27 -6 -37 -46 -19 -75 -58
-142 -101 -173 -55 -40 -126 -55 -252 -56 -159 0 -152 -13 -156 272 l-3 226
61 -6 c126 -14 189 -76 209 -207 5 -37 10 -46 29 -48 l22 -3 0 281 c0 281 0
281 -21 278 -17 -2 -25 -16 -38 -68 -29 -116 -87 -166 -201 -172 l-55 -3 -3
192 c-3 228 4 258 63 269 62 11 246 -1 290 -20 79 -34 135 -107 156 -206 9
-43 14 -50 35 -50 28 0 28 5 17 208 l-6 122 -484 0 c-465 0 -483 -1 -483 -19z"/>
</g>
</svg>
